<?xml version="1.0" encoding="UTF-8" standalone="no"?>
<svg
   fill="none"
   viewBox="0 0 128 128"
   version="1.1"
   id="svg4"
   sodipodi:docname="favicon.svg"
   inkscape:version="1.3 (0e150ed6c4, 2023-07-21)"
   xmlns:inkscape="http://www.inkscape.org/namespaces/inkscape"
   xmlns:sodipodi="http://sodipodi.sourceforge.net/DTD/sodipodi-0.dtd"
   xmlns:xlink="http://www.w3.org/1999/xlink"
   xmlns="http://www.w3.org/2000/svg"
   xmlns:svg="http://www.w3.org/2000/svg">
  <sodipodi:namedview
     id="namedview4"
     pagecolor="#ffffff"
     bordercolor="#000000"
     borderopacity="0.25"
     inkscape:showpageshadow="2"
     inkscape:pageopacity="0.0"
     inkscape:pagecheckerboard="0"
     inkscape:deskcolor="#d1d1d1"
     showgrid="false"
     inkscape:zoom="4.756398"
     inkscape:cx="33.218414"
     inkscape:cy="71.798029"
     inkscape:window-width="1866"
     inkscape:window-height="1057"
     inkscape:window-x="46"
     inkscape:window-y="-8"
     inkscape:window-maximized="1"
     inkscape:current-layer="svg4" />
  <g
     id="g2">
    <path
       d="M47.7 107.1c-5.5-5-7.2-15.7-4.9-23.4 4 4.9 9.6 6.4 15.4 7.3 8.9 1.3 17.6.8 25.9-3.2l2.8-1.7a18 18 0 0 1-7.2 20l-5.5 3.8c-5.6 3.8-7.2 8.2-5 14.7l.2.7a14 14 0 0 1-6.6-5.6 15.8 15.8 0 0 1-2.6-8.6c0-1.5 0-3-.2-4.5-.5-3.7-2.2-5.3-5.5-5.4-3.3-.1-5.9 2-6.6 5.2l-.2.7Z"
       id="path1" />
    <path
       d="M16 82.4s16.5-8 33-8l12.4-38.3c.5-2 1.8-3.2 3.3-3.2 1.6 0 3 1.3 3.4 3.2l12.4 38.3c19.6 0 33 8 33 8l-28-76c-.8-2.3-2.2-3.7-4-3.7H48c-1.8 0-3.1 1.4-4 3.7l-28 76Z"
       id="path2" />
  </g>
  <path
     fill="url(#a)"
     d="M47.7 107.1c-5.5-5-7.2-15.7-4.9-23.4 4 4.9 9.6 6.4 15.4 7.3 8.9 1.3 17.6.8 25.9-3.2l2.8-1.7a18 18 0 0 1-7.2 20l-5.5 3.8c-5.6 3.8-7.2 8.2-5 14.7l.2.7a14 14 0 0 1-6.6-5.6 15.8 15.8 0 0 1-2.6-8.6c0-1.5 0-3-.2-4.5-.5-3.7-2.2-5.3-5.5-5.4-3.3-.1-5.9 2-6.6 5.2l-.2.7Z"
     id="path3"
     style="fill:url(#linearGradient8);fill-opacity:1" />
  <defs
     id="defs4">
    <linearGradient
       id="linearGradient7"
       inkscape:collect="always">
      <stop
         style="stop-color:#9b1c00;stop-opacity:1;"
         offset="0"
         id="stop7" />
      <stop
         style="stop-color:#ff620e;stop-opacity:1;"
         offset="1"
         id="stop8" />
    </linearGradient>
    <linearGradient
       id="a"
       x1="64.7"
       x2="77.4"
       y1="119.2"
       y2="77.4"
       gradientUnits="userSpaceOnUse">
      <stop
         stop-color="#D83333"
         id="stop3" />
      <stop
         offset="1"
         stop-color="#F041FF"
         id="stop4" />
    </linearGradient>
    <linearGradient
       inkscape:collect="always"
       xlink:href="#linearGradient7"
       id="linearGradient8"
       x1="63.493423"
       y1="122.57175"
       x2="128.03807"
       y2="1.4717019"
       gradientUnits="userSpaceOnUse" />
    <linearGradient
       inkscape:collect="always"
       xlink:href="#linearGradient7"
       id="linearGradient11"
       x1="45.910236"
       y1="77.477844"
       x2="82.831909"
       y2="3.3276374"
       gradientUnits="userSpaceOnUse" />
  </defs>
  <style
     id="style4">&#10;    g {&#10;      fill: #000;&#10;    }&#10;&#10;    @media (prefers-color-scheme: dark) {&#10;      g {&#10;        fill: #FFF;&#10;      }&#10;    }&#10;  </style>
  <text
     xml:space="preserve"
     style="font-style:normal;font-variant:normal;font-weight:normal;font-stretch:normal;font-size:21.3333px;font-family:Verdana;-inkscape-font-specification:Verdana;white-space:pre;inline-size:81.5058;display:inline;fill:url(#linearGradient11);fill-opacity:1"
     x="13.528455"
     y="39.544716"
     id="text4"
     transform="matrix(1.6570415,0,0,1.6445135,-10.269066,-4.0006428)"><tspan
       x="13.528455"
       y="39.544716"
       id="tspan4"><tspan
         style="font-weight:bold;font-family:'Cascadia Code';-inkscape-font-specification:'Cascadia Code Bold'"
         id="tspan2">start</tspan></tspan></text>
</svg>
